<?xml version="1.0" encoding="utf-8"?>
<svg version="1.1" id="Layer_1" xmlns="http://www.w3.org/2000/svg" x="0px" y="0px" width="100%" viewBox="150 100 500 500" enable-background="new 0 0 500 500">
  <path opacity="1.000000" stroke="none" d="M 448.688 189.59 C 465.489 179.237 482.358 178.332 499.446 187.897 C 526.197 202.87 531.175 237.257 509.903 259.562 C 495.789 274.364 473.989 278.582 455.12 269.062 C 437.315 260.08 426.34 242.806 428.695 221.922 C 430.238 208.262 437.456 197.829 448.688 189.59 M 453.496 262.6 C 473.524 274.924 499.665 269.108 511.795 249.63 C 523.957 230.1 518.244 205.082 498.834 192.88 C 479.2 180.537 452.282 186.182 439.714 205.278 C 427.207 224.284 432.987 249.164 453.496 262.6 Z" style="fill: rgb(3, 122, 233); transform-box: fill-box; transform-origin: 50% 50%; stroke-width: 0px; stroke-dasharray: 30;"/>
  <path opacity="1.000000" stroke="none" d="M 288.99 213.095 C 298.715 195.164 318.152 186.206 337.808 190.4 C 355.489 194.173 370.606 211.325 371.778 228.941 C 373.028 247.767 359.793 267.087 342.01 272.39 C 321.331 278.557 300.384 270.421 290.196 252.223 C 283.086 239.522 282.974 226.546 288.99 213.095 M 289.367 227.695 C 287.045 249.955 306.701 270.93 329.247 270.082 C 351.978 269.226 368.009 250.714 367.04 230.704 C 366.051 210.274 350.496 195.555 329.96 194.451 C 309.534 193.353 292.494 207 289.367 227.695 Z" style="fill: rgb(3, 122, 233);"/>
  <path fill="#047AE9" opacity="1.000000" stroke="none" d=" M553.064575,374.926422 C566.181702,379.299622 575.615479,388.202637 582.327759,399.881134 C595.996765,423.663666 588.484131,450.658997 568.473328,468.274567 C544.286072,489.566650 515.798218,495.200409 484.608887,490.572266 C458.608521,486.714081 436.339874,474.577667 416.307617,458.482574 C396.469879,442.543762 377.684021,425.300293 358.324188,408.760864 C339.700104,392.849945 319.573486,379.144684 295.746246,372.515503 C270.268982,365.427246 245.521225,366.421112 223.962830,384.299835 C212.878799,393.491974 206.396576,405.399933 204.760651,419.809875 C204.461395,422.445862 204.233078,425.089905 202.908875,427.934509 C201.996429,422.634552 200.780472,417.366608 200.217957,412.029816 C193.803360,351.173492 239.563232,314.341827 281.090332,306.961914 C306.207336,302.498322 330.671539,306.816681 353.713440,318.691071 C373.659760,328.970215 390.128265,343.618774 406.761169,358.260925 C425.495728,374.753296 444.473785,390.986542 463.764740,406.822266 C473.960022,415.191376 485.570282,421.409302 498.530640,424.785156 C519.490234,430.244659 541.574707,422.190826 551.825562,405.086792 C557.470215,395.668396 557.961060,385.988037 552.720520,375.710754 C552.752930,375.231659 553.064575,374.926422 553.064575,374.926422 M474.993927,450.243622 C476.396057,450.563568 477.798157,450.883514 479.200287,451.203461 C479.319763,450.804932 479.439270,450.406372 479.558746,450.007812 C465.736816,445.061127 451.914856,440.114410 438.092926,435.167694 C437.847107,435.871216 437.601318,436.574707 437.355499,437.278229 C449.645721,441.542572 461.935974,445.806915 474.993927,450.243622 M457.792328,439.742157 C465.720612,442.086121 473.648926,444.430084 481.577209,446.774048 C481.692169,446.427399 481.807129,446.080750 481.922089,445.734100 C469.283356,441.214203 456.644623,436.694275 444.005890,432.174377 C443.810883,432.731598 443.615875,433.288818 443.420868,433.846069 C447.977081,435.694855 452.533295,437.543671 457.792328,439.742157 M458.104645,434.324310 C464.149841,436.354034 470.195038,438.383789 476.240234,440.413513 C476.394806,439.928040 476.549408,439.442596 476.703979,438.957123 C465.631348,434.902679 454.558746,430.848236 443.486115,426.793823 C443.308075,427.224854 443.130035,427.655914 442.952026,428.086975 C447.756470,430.082214 452.560913,432.077484 458.104645,434.324310 M446.590424,445.923981 C457.314850,449.538147 468.039276,453.152344 478.763702,456.766510 C478.940002,456.221985 479.116333,455.677460 479.292664,455.132935 C469.300049,451.744476 459.316284,448.329346 449.299103,445.015167 C448.440552,444.731110 447.360291,445.117279 446.590424,445.923981 M454.515167,428.063751 C459.749664,429.858856 464.984161,431.653961 470.218658,433.449036 C470.367279,432.999634 470.515900,432.550262 470.664520,432.100861 C463.593567,429.572998 456.522644,427.045135 449.451691,424.517242 C449.309265,424.889801 449.166840,425.262329 449.024414,425.634888 C450.620728,426.372711 452.217010,427.110565 454.515167,428.063751 M449.444458,451.980469 C449.303528,452.068085 449.130981,452.130280 449.032898,452.252380 C448.968750,452.332214 448.974518,452.597504 449.013214,452.612427 C454.156433,454.588226 459.305603,456.548645 464.454468,458.509735 C464.629578,458.020355 464.804718,457.530975 464.979828,457.041595 C460.030762,455.357544 455.081696,453.673462 449.444458,451.980469 M445.451385,443.509216 C445.451385,443.509216 445.464661,443.571259 445.451385,443.509216 M466.339142,458.468567 C466.339142,458.468567 466.458130,458.396851 466.339142,458.468567 z"/>
  <path fill="#057AE9" opacity="1.000000" stroke="none" d=" M371.263855,438.317810 C364.628296,441.669739 357.992767,445.021667 350.501373,448.805939 C352.392761,448.901642 353.318420,448.948486 354.804321,449.053589 C355.364532,449.111847 355.746552,448.973938 355.746552,448.973938 C357.341217,449.124268 359.028748,449.687592 360.514435,449.353394 C366.948273,447.906128 373.323120,446.196564 379.719421,444.582397 C379.855469,444.991302 379.991516,445.400238 380.127563,445.809143 C372.965973,448.613068 365.804413,451.416992 358.642822,454.220917 C358.744049,454.614563 358.845245,455.008209 358.946442,455.401855 C368.086395,452.863251 377.226349,450.324615 386.366302,447.786011 C386.515350,448.176727 386.664368,448.567413 386.813416,448.958130 C380.348663,451.819794 373.883911,454.681427 367.419159,457.543060 C367.525848,457.885132 367.632568,458.227173 367.739288,458.569244 C372.429535,457.323944 377.119781,456.078674 381.810028,454.833374 C381.977264,455.092133 382.144501,455.350861 382.311737,455.609589 C379.349121,458.105591 376.424591,460.648590 373.417572,463.089905 C356.648956,476.703766 338.146210,486.871948 316.805573,491.293610 C277.424744,499.453064 236.874435,484.060913 216.456772,452.375488 C202.231613,430.299988 208.005737,401.354034 229.428711,385.834686 C241.387787,377.171204 254.653427,372.829926 268.484741,373.158112 C266.205444,375.811890 263.514587,378.855530 260.921143,381.980042 C250.302032,394.773712 253.143433,417.821014 272.891998,427.217682 C286.825897,433.847687 300.307953,431.323151 313.232574,424.883698 C324.662476,419.188965 335.587738,412.481323 347.319427,405.893097 C350.282104,408.333038 353.831482,411.256195 358.429840,415.043213 C349.185791,418.799042 340.891235,422.169098 332.596680,425.539154 C332.639282,425.858643 332.681915,426.178162 332.724518,426.497681 C338.900574,424.897430 345.076599,423.297211 351.252625,421.696991 C351.362427,422.086700 351.472198,422.476410 351.582001,422.866150 C342.668121,426.304260 333.754242,429.742371 324.840363,433.180450 C324.952332,433.543854 325.064331,433.907227 325.176300,434.270630 C334.088135,431.729004 342.999969,429.187378 351.911804,426.645752 C352.062836,427.073181 352.213837,427.500610 352.364838,427.928040 C344.355560,431.120544 336.346313,434.313019 328.337036,437.505524 C328.498657,437.994843 328.660278,438.484161 328.821930,438.973480 C338.799438,435.770264 348.776947,432.567047 359.313904,429.586578 C360.004700,429.980103 360.136047,430.150879 360.267365,430.321655 C351.818329,434.022064 343.369293,437.722504 334.920258,441.422913 C335.029175,441.782776 335.138062,442.142639 335.246979,442.502502 C345.789703,439.231537 356.332428,435.960602 367.375763,432.779602 C367.876373,432.869537 368.117767,433.133209 368.117767,433.133209 C358.758331,437.558197 349.398895,441.983185 340.039459,446.408173 C340.170319,446.809204 340.301208,447.210236 340.432068,447.611267 C350.209778,444.238403 359.987518,440.865540 370.323120,437.657593 C371.008606,437.987610 371.136230,438.152710 371.263855,438.317810 z"/>
  <path fill="#057AE9" opacity="1.000000" stroke="none" d=" M449.783295,384.786621 C451.695587,383.038391 453.607910,381.290192 455.520203,379.541962 C455.394012,379.262695 455.267822,378.983429 455.141632,378.704163 C452.340973,379.860596 449.540283,381.017029 446.739624,382.173462 C446.557495,381.892273 446.375366,381.611084 446.193237,381.329895 C449.153625,378.922394 452.113983,376.514893 455.573334,373.741211 C456.270111,373.040375 456.467896,372.705750 456.665710,372.371094 C456.060394,372.526184 455.455139,372.681305 454.849854,372.836395 C453.235840,373.615631 451.621796,374.394867 449.489441,375.070496 C448.842316,374.838776 448.713531,374.710663 448.584717,374.582458 C449.926056,373.228943 451.267487,371.875458 452.608917,370.521973 C452.471527,370.216705 452.334137,369.911438 452.196777,369.606171 C448.853943,371.182312 445.511078,372.758453 441.637756,374.240448 C440.972900,373.995941 440.838562,373.845551 440.704224,373.695190 C443.094513,371.696228 445.484802,369.697266 448.254028,367.312256 C449.724854,365.187378 450.816711,363.448547 451.908600,361.709717 C451.258759,361.189087 450.608917,360.668427 449.959076,360.147797 C448.958862,361.476501 447.958649,362.805206 446.958435,364.133881 C444.897247,364.403473 442.836060,364.673096 440.774902,364.942719 C440.531219,364.589569 440.287567,364.236450 440.043915,363.883301 C444.273132,361.191589 448.502350,358.499878 452.731567,355.808167 C452.566650,355.452942 452.401733,355.097748 452.236816,354.742523 C446.562134,357.343018 440.887451,359.943542 434.656311,362.348755 C433.957306,361.967407 433.814728,361.781372 433.672180,361.595306 C439.713837,357.942413 445.755524,354.289520 451.797180,350.636627 C451.599487,350.229034 451.401794,349.821442 451.204102,349.413818 C445.797791,351.993591 440.391479,354.573334 434.390625,356.966675 C433.626556,356.609131 433.457062,356.437988 433.287537,356.266876 C437.155975,353.808502 441.024445,351.350159 444.892883,348.891785 C444.687500,348.455109 444.482117,348.018402 444.276703,347.581696 C437.224670,350.940826 430.172607,354.299927 423.120544,357.659027 C422.921387,357.245026 422.722229,356.831024 422.523041,356.417023 C428.376434,352.976837 434.229828,349.536682 440.621765,345.743378 C441.342682,345.019928 441.525024,344.649628 441.707397,344.279297 C441.073059,344.449585 440.438751,344.619873 439.804443,344.790161 C432.836914,347.897827 425.869415,351.005524 418.344543,353.933777 C417.657440,353.609650 417.527679,353.464996 417.397949,353.320374 C418.909821,352.106537 420.421692,350.892670 422.355103,349.340393 C420.600647,349.085480 419.491852,348.924408 418.293060,348.750244 C432.813385,336.301208 447.771698,324.888031 465.034546,316.538483 C504.716003,297.345795 549.531616,305.641632 577.783020,339.204285 C599.862122,365.434296 605.411377,395.657745 595.221191,428.569153 C595.076355,429.036896 594.906433,429.500366 594.698303,429.942291 C594.654053,430.036133 594.391357,430.027039 593.796631,430.167847 C593.702454,428.713806 593.421631,427.307251 593.550781,425.939423 C596.084900,399.107819 570.467224,367.118835 534.770630,366.831848 C513.241028,366.658783 495.037140,374.990356 477.425934,385.827576 C471.360413,389.560089 465.362030,393.401703 458.025177,398.016022 C456.744019,394.933685 455.664642,392.267395 454.487946,389.644836 C454.398987,389.446533 453.617706,389.558899 452.711792,389.363159 C452.265350,389.199493 451.992340,388.993408 451.992371,388.993408 C453.613586,387.520844 455.234833,386.048248 456.856049,384.575653 C456.716736,384.293640 456.577454,384.011658 456.438141,383.729675 C454.697784,384.333832 452.957458,384.937958 450.684509,385.397827 C450.029022,385.097900 449.906158,384.942261 449.783295,384.786621 M454.546234,363.628296 C454.001007,363.513153 453.457977,363.376495 452.906708,363.321045 C452.858978,363.316254 452.757263,363.848022 452.680664,364.130585 C453.215088,364.090088 453.749512,364.049591 454.546234,363.628296 M456.415680,378.940887 C456.484283,378.725525 456.552917,378.510162 456.621552,378.294861 C456.411194,378.367950 456.200806,378.441040 456.415680,378.940887 M454.394073,359.488800 C454.394073,359.488800 454.522766,359.408325 454.394073,359.488800 z"/>
  <path fill="#3594EE" opacity="1.000000" stroke="none" d=" M356.145508,449.005829 C355.746552,448.973938 355.364532,449.111847 355.171570,449.048645 C361.682709,446.042023 368.386810,443.098602 375.090912,440.155212 C375.334991,440.761444 375.579041,441.367706 375.823120,441.973938 C369.396881,444.328552 362.970673,446.683136 356.145508,449.005829 z"/>
  <path fill="#2E90ED" opacity="1.000000" stroke="none" d=" M446.837097,364.437927 C447.958649,362.805206 448.958862,361.476501 449.959076,360.147797 C450.608917,360.668427 451.258759,361.189087 451.908600,361.709717 C450.816711,363.448547 449.724854,365.187378 448.267273,366.975159 C445.981415,367.785034 444.061218,368.545990 441.645081,369.248901 C441.027283,369.055847 440.905457,368.920837 440.783661,368.785858 C442.761047,367.437897 444.738403,366.089935 446.837097,364.437927 z"/>
  <path fill="#057AE9" opacity="1.000000" stroke="none" d=" M417.980957,353.972137 C417.286407,354.501801 416.398102,354.813660 415.509766,355.125549 C415.415192,354.875305 415.320587,354.625061 415.225983,354.374847 C415.764069,354.130310 416.302155,353.885742 417.119080,353.480774 C417.527679,353.464996 417.657440,353.609650 417.980957,353.972137 z"/>
  <path fill="#057AE9" opacity="1.000000" stroke="none" d=" M432.244293,358.296600 C431.316132,358.524750 430.388000,358.752869 429.459839,358.981018 C429.400513,358.783539 429.341156,358.586029 429.281799,358.388550 C429.818024,358.123199 430.354218,357.857819 431.372070,357.708710 C431.983917,357.982178 432.114105,358.139404 432.244293,358.296600 z"/>
  <path fill="#057AE9" opacity="1.000000" stroke="none" d=" M431.854950,362.840179 C432.275848,362.479919 432.696747,362.119659 433.394897,361.677338 C433.814728,361.781372 433.957306,361.967407 434.301910,362.441772 C434.019684,363.001495 433.535370,363.272919 432.622192,363.392822 C432.080505,363.107605 431.967712,362.973877 431.854950,362.840179 z"/>
  <path fill="#057AE9" opacity="1.000000" stroke="none" d=" M382.346527,444.774658 C381.828857,444.916656 381.563568,444.869781 381.298248,444.822876 C381.361847,444.611786 381.425415,444.400726 381.489014,444.189636 C381.858978,444.321686 382.228943,444.453735 382.346527,444.774658 z"/>
  <path fill="#057AE9" opacity="1.000000" stroke="none" d=" M432.349548,363.452087 C431.778259,363.659058 431.050720,363.655243 430.323181,363.651428 C430.622620,363.400085 430.922089,363.148773 431.538269,362.868835 C431.967712,362.973877 432.080505,363.107605 432.349548,363.452087 z"/>
  <path fill="#057AE9" opacity="1.000000" stroke="none" d=" M370.691711,437.573181 C371.386108,437.335358 372.269745,437.346863 373.153381,437.358368 C372.765106,437.633148 372.376862,437.907959 371.626221,438.250275 C371.136230,438.152710 371.008606,437.987610 370.691711,437.573181 z"/>
  <path fill="#057AE9" opacity="1.000000" stroke="none" d=" M374.199951,436.805664 C374.467651,436.541748 374.946808,436.511719 375.425995,436.481689 C375.087799,436.667664 374.749634,436.853607 374.199951,436.805664 z"/>
  <path fill="#057AE9" opacity="1.000000" stroke="none" d=" M367.756165,432.737244 C368.309631,432.551086 368.983276,432.497223 369.656952,432.443390 C369.347870,432.675079 369.038788,432.906738 368.423737,433.135803 C368.117767,433.133209 367.876373,432.869537 367.756165,432.737244 z"/>
  <path fill="#057AE9" opacity="1.000000" stroke="none" d=" M359.692719,429.541382 C360.232971,429.302277 360.953827,429.331055 361.674683,429.359833 C361.410461,429.646576 361.146210,429.933350 360.574646,430.270874 C360.136047,430.150879 360.004700,429.980103 359.692719,429.541382 z"/>
  <path fill="#057AE9" opacity="1.000000" stroke="none" d=" M354.638977,426.219208 C354.355927,426.623230 353.815308,426.734985 353.274658,426.846741 C353.643555,426.540161 354.012482,426.233551 354.638977,426.219208 z"/>
  <path fill="#2E90ED" opacity="1.000000" stroke="none" d=" M438.112457,371.110321 C437.623199,371.309662 437.133911,371.509003 436.644653,371.708313 C436.823669,371.422913 437.002686,371.137543 437.545288,370.882080 C437.908905,370.911987 438.112457,371.110321 438.112457,371.110321 z"/>
  <path fill="#057AE9" opacity="1.000000" stroke="none" d=" M434.044403,357.042603 C433.804871,357.608276 433.316986,357.911530 432.536682,358.255676 C432.114105,358.139404 431.983917,357.982178 431.666168,357.582336 C431.908569,357.023407 432.338501,356.707092 433.027985,356.328827 C433.457062,356.437988 433.626556,356.609131 434.044403,357.042603 z"/>
  <path fill="#057AE9" opacity="1.000000" stroke="none" d=" M356.718140,425.994843 C356.441010,425.726288 356.473969,425.416901 356.506958,425.107544 C356.771881,425.193207 357.036835,425.278900 357.301819,425.364563 C357.210602,425.561035 357.119385,425.757538 356.718140,425.994843 z"/>
  <path fill="#2E90ED" opacity="1.000000" stroke="none" d=" M437.807007,370.812927 C438.040405,370.499695 438.375702,370.285522 438.710999,370.071350 C438.720642,370.380707 438.730316,370.690033 438.426208,371.054871 C438.112457,371.110321 437.908905,370.911987 437.807007,370.812927 z"/>
  <path fill="#057AE9" opacity="1.000000" stroke="none" d=" M452.398346,389.307007 C452.192963,389.307465 451.854614,389.200409 451.754272,389.043396 C451.992340,388.993408 452.265350,389.199493 452.398346,389.307007 z"/>
  <path fill="#057AE9" opacity="1.000000" stroke="none" d=" M450.329071,385.492523 C450.064423,385.502502 449.622620,385.273529 449.482056,384.915588 C449.906158,384.942261 450.029022,385.097900 450.329071,385.492523 z"/>
  <path fill="#057AE9" opacity="1.000000" stroke="none" d=" M449.163452,375.159790 C449.016052,375.481476 448.676239,375.610260 448.336395,375.739014 C448.296478,375.484344 448.256531,375.229706 448.400696,374.778809 C448.713531,374.710663 448.842316,374.838776 449.163452,375.159790 z"/>
  <path fill="#057AE9" opacity="1.000000" stroke="none" d=" M438.362000,375.665985 C438.323059,375.378510 438.455139,375.185547 438.573456,375.193604 C438.691040,375.201660 438.794830,375.411835 438.904663,375.533417 C438.778778,375.638489 438.652893,375.743530 438.362000,375.665985 z"/>
  <path fill="#047AE9" opacity="1.000000" stroke="none" d=" M552.588867,375.375427 C552.586121,375.197266 552.747437,374.875275 552.986694,374.739868 C553.064575,374.926422 552.752930,375.231659 552.588867,375.375427 z"/>
  <path fill="#057AE9" opacity="1.000000" stroke="none" d=" M383.276031,454.443085 C383.351807,454.385345 383.406921,454.581573 383.406921,454.581573 C383.406921,454.581573 383.200256,454.500824 383.276031,454.443085 z"/>
  <path fill="#057AE9" opacity="1.000000" stroke="none" d=" M441.307281,374.373169 C441.034576,374.394379 440.561859,374.188690 440.396667,373.839111 C440.838562,373.845551 440.972900,373.995941 441.307281,374.373169 z"/>
  <path fill="#2E90ED" opacity="1.000000" stroke="none" d=" M441.329407,369.395477 C441.049744,369.405151 440.589752,369.210175 440.456726,368.900513 C440.905457,368.920837 441.027283,369.055847 441.329407,369.395477 z"/>
  <path fill="#DEEEFC" opacity="1.000000" stroke="none" d=" M474.610046,450.157440 C461.935974,445.806915 449.645721,441.542572 437.355499,437.278229 C437.601318,436.574707 437.847107,435.871216 438.092926,435.167694 C451.914856,440.114410 465.736816,445.061127 479.558746,450.007812 C479.439270,450.406372 479.319763,450.804932 479.200287,451.203461 C477.798157,450.883514 476.396057,450.563568 474.610046,450.157440 z"/>
  <path fill="#DEEEFC" opacity="1.000000" stroke="none" d=" M457.440918,439.567322 C452.533295,437.543671 447.977081,435.694855 443.420868,433.846069 C443.615875,433.288818 443.810883,432.731598 444.005890,432.174377 C456.644623,436.694275 469.283356,441.214203 481.922089,445.734100 C481.807129,446.080750 481.692169,446.427399 481.577209,446.774048 C473.648926,444.430084 465.720612,442.086121 457.440918,439.567322 z"/>
  <path fill="#DEEEFC" opacity="1.000000" stroke="none" d=" M457.735016,434.198517 C452.560913,432.077484 447.756470,430.082214 442.952026,428.086975 C443.130035,427.655914 443.308075,427.224854 443.486115,426.793823 C454.558746,430.848236 465.631348,434.902679 476.703979,438.957123 C476.549408,439.442596 476.394806,439.928040 476.240234,440.413513 C470.195038,438.383789 464.149841,436.354034 457.735016,434.198517 z"/>
  <path fill="#D2E7FB" opacity="1.000000" stroke="none" d=" M446.486694,445.558044 C447.360291,445.117279 448.440552,444.731110 449.299103,445.015167 C459.316284,448.329346 469.300049,451.744476 479.292664,455.132935 C479.116333,455.677460 478.940002,456.221985 478.763702,456.766510 C468.039276,453.152344 457.314850,449.538147 446.486694,445.558044 z"/>
  <path fill="#D2E7FB" opacity="1.000000" stroke="none" d=" M454.164246,427.956055 C452.217010,427.110565 450.620728,426.372711 449.024414,425.634888 C449.166840,425.262329 449.309265,424.889801 449.451691,424.517242 C456.522644,427.045135 463.593567,429.572998 470.664520,432.100861 C470.515900,432.550262 470.367279,432.999634 470.218658,433.449036 C464.984161,431.653961 459.749664,429.858856 454.164246,427.956055 z"/>
  <path fill="#AED4F8" opacity="1.000000" stroke="none" d=" M449.788544,451.984924 C455.081696,453.673462 460.030762,455.357544 464.979828,457.041595 C464.804718,457.530975 464.629578,458.020355 464.454468,458.509735 C459.305603,456.548645 454.156433,454.588226 449.013214,452.612427 C448.974518,452.597504 448.968750,452.332214 449.032898,452.252380 C449.130981,452.130280 449.303528,452.068085 449.788544,451.984924 z"/>
  <path fill="#D2E7FB" opacity="1.000000" stroke="none" d=" M445.458008,443.540222 C445.464661,443.571259 445.451385,443.509216 445.458008,443.540222 z"/>
  <path fill="#AED4F8" opacity="1.000000" stroke="none" d=" M466.398621,458.432709 C466.458130,458.396851 466.339142,458.468567 466.398621,458.432709 z"/>
  <path fill="#2E90ED" opacity="1.000000" stroke="none" d=" M454.415100,363.818726 C453.749512,364.049591 453.215088,364.090088 452.680664,364.130585 C452.757263,363.848022 452.858978,363.316254 452.906708,363.321045 C453.457977,363.376495 454.001007,363.513153 454.415100,363.818726 z"/>
  <path fill="#F8FBFE" opacity="1.000000" stroke="none" d=" M455.024902,373.044189 C455.455139,372.681305 456.060394,372.526184 456.665710,372.371094 C456.467896,372.705750 456.270111,373.040375 455.813995,373.518860 C455.437103,373.525757 455.318512,373.388855 455.024902,373.044189 z"/>
  <path fill="#F8FBFE" opacity="1.000000" stroke="none" d=" M440.006317,345.015686 C440.438751,344.619873 441.073059,344.449585 441.707397,344.279297 C441.525024,344.649628 441.342682,345.019928 440.888824,345.538849 C440.480927,345.538727 440.344574,345.389984 440.006317,345.015686 z"/>
  <path fill="#F8FBFE" opacity="1.000000" stroke="none" d=" M456.203064,378.727509 C456.200806,378.441040 456.411194,378.367950 456.621521,378.294861 C456.552917,378.510162 456.484283,378.725525 456.203064,378.727509 z"/>
  <path fill="#2E90ED" opacity="1.000000" stroke="none" d=" M454.458435,359.448547 C454.522766,359.408325 454.394073,359.488800 454.458435,359.448547 z"/>
</svg>